<?xml version="1.0" standalone="no"?>
<!DOCTYPE svg PUBLIC "-//W3C//DTD SVG 20010904//EN"
 "http://www.w3.org/TR/2001/REC-SVG-20010904/DTD/svg10.dtd">
<svg version="1.0" xmlns="http://www.w3.org/2000/svg"
 width="500.000000pt" height="500.000000pt" viewBox="0 0 500.000000 500.000000"
 preserveAspectRatio="xMidYMid meet">
<metadata>
Created by potrace 1.16, written by Peter Selinger 2001-2019
</metadata>
<g transform="translate(0.000000,500.000000) scale(0.100000,-0.100000)"
fill="#000000" stroke="none">
<path d="M1073 3968 c17 -19 46 -42 62 -53 58 -36 162 -146 188 -198 43 -89
44 -101 4 -149 -19 -24 -42 -56 -52 -73 l-17 -30 23 30 c34 45 164 175 175
175 5 0 21 -21 36 -48 14 -26 57 -82 95 -125 l68 -78 6 108 c9 145 34 251 62
264 36 15 -39 0 -103 -21 l-54 -18 -41 40 c-86 86 -250 173 -353 188 -31 4
-74 11 -94 15 l-38 7 33 -34z"/>
<path d="M3656 3825 c-60 -47 -63 -79 -8 -127 35 -30 38 -37 34 -70 -3 -27 -9
-38 -21 -38 -24 0 -121 48 -121 60 0 5 -4 10 -9 10 -4 0 -14 -27 -21 -60 -12
-55 -11 -62 5 -80 10 -11 50 -30 89 -42 39 -12 72 -23 74 -24 4 -2 42 -163 42
-180 0 -20 -46 -18 -115 6 -32 11 -60 20 -62 20 -11 0 11 -97 26 -114 9 -11
53 -36 97 -57 l82 -38 11 -79 c10 -69 8 -112 -5 -112 -12 0 -94 46 -136 76
l-48 34 0 -52 c0 -55 16 -84 92 -164 33 -35 40 -49 45 -97 3 -31 3 -63 -1 -73
-6 -15 -8 -15 -24 -2 -24 21 -76 47 -139 69 -48 16 -55 17 -60 2 -5 -12 -16
-14 -64 -9 l-57 7 -57 -58 c-104 -106 -209 -284 -238 -403 -19 -76 -40 -246
-35 -281 2 -18 9 -8 31 46 44 114 214 365 294 435 49 43 182 130 199 130 16 0
32 -55 43 -146 l8 -66 -71 -52 c-102 -75 -294 -263 -356 -347 l-52 -72 32 6
c50 10 187 78 283 140 128 83 138 78 86 -44 -17 -41 -36 -89 -43 -108 -9 -27
-24 -39 -77 -66 -126 -64 -227 -87 -295 -69 -15 4 -26 21 -37 58 -29 89 -28
89 -137 52 -114 -38 -227 -92 -299 -141 -29 -20 -57 -33 -62 -28 -29 29 -119
150 -119 159 0 21 73 76 207 156 129 78 196 111 205 102 11 -10 28 28 77 171
60 176 110 284 175 379 l47 68 -100 -3 -101 -4 -31 85 c-71 200 -89 255 -89
279 0 27 -41 162 -66 218 -8 17 -14 34 -14 38 0 4 -16 34 -36 66 l-35 59 37
70 c40 76 85 123 160 165 27 16 60 35 74 44 14 9 32 16 40 17 8 1 44 9 80 18
133 35 131 34 60 36 -272 11 -455 -27 -621 -129 l-48 -30 -78 45 c-69 39 -171
84 -191 84 -4 0 -16 -39 -26 -87 -18 -92 -54 -212 -80 -275 l-16 -37 78 55
c126 89 222 166 233 187 10 18 14 17 55 -24 24 -24 44 -51 44 -61 0 -10 -22
-41 -50 -70 -27 -28 -50 -54 -50 -56 0 -7 140 8 166 18 20 8 27 4 54 -30 73
-92 115 -250 108 -412 -3 -84 -4 -88 -38 -123 -23 -24 -54 -42 -94 -54 l-59
-18 53 -6 c36 -4 75 -19 121 -47 72 -42 108 -81 134 -142 l15 -37 -53 -57
c-90 -99 -210 -160 -401 -206 l-96 -23 7 -40 c3 -22 9 -43 12 -48 4 -4 34 2
67 14 69 24 174 28 252 10 28 -7 52 -16 52 -19 0 -4 -55 -36 -121 -72 -67 -36
-139 -80 -160 -98 -64 -55 -52 -101 65 -246 116 -144 153 -196 182 -261 20
-43 30 -55 43 -50 30 12 135 34 203 43 l66 8 -5 -55 c-3 -31 -8 -59 -12 -63
-12 -13 -162 -40 -205 -36 -34 2 -42 0 -39 -12 3 -11 15 -14 47 -12 23 2 82
-6 131 -17 84 -20 155 -21 181 -3 26 19 34 58 34 161 0 60 3 116 6 125 8 22
27 20 50 -5 41 -45 55 -38 16 8 -23 27 -42 57 -42 66 0 16 2 16 27 0 22 -15
49 -18 148 -18 66 0 136 4 156 8 36 9 37 8 59 -37 12 -26 23 -61 24 -79 1 -30
-2 -33 -49 -50 -35 -12 -74 -16 -132 -15 l-81 3 -5 -35 c-2 -19 -3 -36 -1 -38
1 -2 57 -11 123 -20 l121 -17 -30 -37 -30 -36 -50 13 c-28 7 -75 23 -105 36
-45 18 -57 20 -70 9 -8 -7 -15 -17 -15 -21 0 -16 241 -129 272 -129 40 0 153
113 191 191 37 76 38 172 3 251 -42 96 -43 116 -1 210 21 45 43 97 51 113 31
70 46 160 41 245 -4 78 -10 105 -47 196 -12 28 -10 35 28 99 141 233 159 495
58 848 -30 105 -46 180 -46 219 0 43 33 91 77 114 64 32 65 34 38 56 -20 16
-33 18 -70 12 -55 -8 -79 9 -97 68 -6 21 -14 38 -18 38 -4 0 -28 -16 -54 -35z
m-646 -2159 c0 -21 -6 -24 -50 -30 -58 -8 -167 -47 -227 -82 -23 -13 -44 -24
-47 -24 -13 0 -59 81 -50 90 13 12 194 49 277 56 40 4 74 8 76 10 12 10 21 2
21 -20z"/>
<path d="M1823 3804 c-5 -11 -8 -64 -8 -119 1 -82 6 -116 30 -190 38 -117 41
-121 70 -87 39 47 85 128 106 188 21 60 51 205 44 213 -3 2 -56 6 -119 9 -107
4 -116 3 -123 -14z"/>
<path d="M1435 3386 c-35 -15 -60 -42 -69 -73 -7 -22 -7 -22 36 -7 23 8 70 17
103 19 53 4 54 3 14 -3 -131 -21 -228 -170 -216 -334 5 -71 18 -98 47 -98 17
0 17 2 -2 38 -39 75 -8 219 63 291 37 37 121 81 157 81 34 0 98 -36 120 -67
26 -38 52 -119 52 -162 0 -41 -21 -114 -44 -160 -13 -23 -13 -31 -4 -30 16 1
56 17 45 18 -4 1 0 15 9 32 25 49 30 167 10 229 -25 76 -69 141 -123 181 -78
58 -138 71 -198 45z"/>
<path d="M2257 3273 c-46 -7 -149 -112 -182 -184 -24 -55 -27 -70 -23 -145 l4
-82 -65 24 c-36 14 -75 23 -86 21 -18 -4 -18 -4 3 -6 12 0 52 -14 89 -31 91
-41 103 -40 92 8 -12 50 -11 129 1 174 15 52 81 132 135 164 83 48 197 21 251
-61 22 -34 44 -122 44 -181 0 -48 -23 -136 -42 -161 -6 -7 -4 -14 3 -19 32
-19 69 85 69 195 0 59 -40 211 -62 239 -35 42 -129 60 -231 45z"/>
<path d="M1535 3161 c-3 -5 -1 -12 5 -16 14 -9 13 -48 -2 -63 -15 -15 -48 -16
-48 -1 0 5 -4 7 -10 4 -14 -9 -13 -82 2 -122 21 -57 79 -57 122 0 19 25 25 46
27 96 2 43 -1 66 -9 69 -7 2 -12 10 -12 17 0 20 -63 34 -75 16z"/>
<path d="M1090 3129 c-19 -45 -80 -136 -133 -198 -50 -58 -59 -78 -28 -61 28
15 33 13 21 -9 -16 -30 -12 -40 13 -34 19 4 20 3 5 -7 -26 -16 -22 -30 10 -30
17 0 32 8 40 21 19 30 111 69 184 77 59 7 61 9 40 21 -38 20 -102 82 -117 112
-8 15 -16 52 -17 83 -1 31 -3 56 -4 56 -1 0 -7 -14 -14 -31z"/>
<path d="M2240 3100 c-12 -8 -12 -10 2 -15 23 -9 30 -33 17 -57 -8 -16 -17
-19 -40 -14 -29 5 -29 5 -29 -40 0 -77 44 -132 96 -118 31 8 67 74 72 130 5
62 -9 91 -53 110 -40 16 -45 17 -65 4z"/>
<path d="M1596 2604 c14 -79 58 -167 105 -211 95 -87 262 -66 342 44 38 52 91
152 84 159 -2 3 -35 -1 -73 -7 -82 -14 -129 -7 -180 27 l-38 26 -59 -18 c-58
-18 -112 -14 -170 11 -17 7 -18 4 -11 -31z m219 -79 c14 -13 25 -20 25 -15 0
13 57 23 95 16 38 -8 58 -44 53 -97 -3 -29 -10 -37 -48 -56 -94 -48 -212 -15
-257 71 -39 76 70 143 132 81z"/>
<path d="M1748 1883 c-27 -4 -28 -6 -24 -56 2 -29 5 -58 5 -64 1 -7 14 -13 29
-13 76 0 138 -22 187 -66 38 -35 46 -47 36 -57 -16 -16 -192 -23 -220 -7 -20
10 -21 9 -16 -13 4 -14 12 -62 20 -108 10 -66 13 -75 14 -40 1 37 4 42 19 36
39 -15 197 -16 251 -2 l53 15 -6 -46 c-3 -26 -10 -50 -15 -55 -5 -5 -48 -19
-97 -32 l-89 -23 72 -22 c66 -20 77 -21 115 -8 32 10 50 25 78 66 30 44 68
140 58 146 -2 1 -15 10 -30 19 -15 10 -29 17 -30 16 -6 -4 -94 44 -113 61 -11
10 -30 21 -42 24 -30 9 -118 120 -145 183 -25 56 -29 58 -110 46z"/>
</g>
</svg>
